# xmcd
#
# Track frame offsets:
#	150
#	12005
#	19033
#	27343
#	40132
#	52667
#	64745
#	70188
#	79090
#	83091
#
# Disc length: 1250 seconds
#
# Revision: 1
# Processed by: cddbd v1.5.1PL2 Copyright (c) Steve Scherf et al.
# Submitted via: audiograbber 1.80
#
DISCID=6b04e00a
DTITLE=JD Baker and Travis Loewen - God, Cowboy and Country
DYEAR=1900
DGENRE=
TTITLE0=The Whole Load
TTITLE1=God Must be a Cowboy at Heart
TTITLE2=Cowboy's Prayer
TTITLE3=Bronco Twister's Prayer
TTITLE4=No Rest for the Horse
TTITLE5=Master's Call
TTITLE6=Parable in F
TTITLE7=Liberty's View
TTITLE8=The New Cowboy
TTITLE9=The Trail Home
EXTD=
EXTT0=
EXTT1=
EXTT2=
EXTT3=
EXTT4=
EXTT5=
EXTT6=
EXTT7=
EXTT8=
EXTT9=
PLAYORDER=
